<?xml version="1.0" encoding="UTF-8"?>
<svg width="884px" height="377px" viewBox="0 0 884 377" version="1.1" xmlns="http://www.w3.org/2000/svg" xmlns:xlink="http://www.w3.org/1999/xlink">
    <title>Group 80</title>
    <defs>
        <polygon id="path-1" points="0 0 254.657828 0 254.657828 191.650913 0 191.650913"></polygon>
        <polygon id="path-3" points="0 0 598.694455 0 598.694455 87.9805686 0 87.9805686"></polygon>
        <polygon id="path-5" points="0 0 79.0569643 0 79.0569643 79.0830545 0 79.0830545"></polygon>
        <polygon id="path-7" points="0 0 79.0569643 0 79.0569643 79.0830545 0 79.0830545"></polygon>
    </defs>
    <g id="develop-this" stroke="none" stroke-width="1" fill="none" fill-rule="evenodd">
        <g id="1.0-Homepage-Copy-2" transform="translate(-556.000000, -100.000000)">
            <g id="Group-80" transform="translate(556.000119, 100.000000)">
                <path d="M266.489381,189.497 C266.499381,189.499 266.510381,189.503 266.510381,189.503 C266.510381,189.503 266.502381,189.5 266.489381,189.497" id="Fill-1" fill="#A1B7C6"></path>
                <path d="M264.316381,189.4525 C264.475381,189.4935 264.598381,189.5245 264.683381,189.5475 C264.598381,189.5255 264.475381,189.4935 264.316381,189.4525" id="Fill-3" fill="#A1B7C6"></path>
                <path d="M264.456881,189.4885 C264.493881,189.4985 264.521881,189.5055 264.542881,189.5115 C264.521881,189.5055 264.493881,189.4985 264.456881,189.4885" id="Fill-5" fill="#A1B7C6"></path>
                <path d="M254.999881,186 C259.348273,186.79056 262.62714,187.628319 263.999881,188 C262.628518,187.629794 259.35103,186.79056 254.999881,186" id="Fill-7" fill="#A1B7C6"></path>
                <g id="Group-11" transform="translate(0.000000, 184.349087)">
                    <mask id="mask-2" fill="white">
                        <use xlink:href="#path-1"></use>
                    </mask>
                    <g id="Clip-10"></g>
                    <path d="M220.918253,1.69079191 C202.457848,6.50428885 203.194646,15.0213674 203.194646,15.0213674 C203.194646,15.0213674 188.428345,5.02343578 168.12161,11.6887235 C147.814876,18.3540113 152.985465,37.609448 152.985465,37.609448 C152.985465,37.609448 130.094159,29.0923695 117.171298,44.2747358 C104.249881,59.4571021 114.219771,73.1571664 114.219771,73.1571664 C114.219771,73.1571664 95.3895226,65.3819633 83.5761927,75.378446 C71.7599733,85.3763776 78.4056035,99.0778909 78.4056035,99.0778909 C78.4056035,99.0778909 73.9761465,92.4126031 61.7915281,96.8566113 C51.9198779,100.455867 51.259649,113.050363 59.0234787,117.503065 C52.95284,116.861168 44.3337467,117.949349 39.6399092,127.590833 C34.6022326,137.937967 39.3856416,144.843785 43.3542386,148.412612 C39.9981953,146.912922 34.6686889,146.297108 27.8251345,151.288829 C19.2306011,157.558546 19.6423413,167.140622 22.4436188,173.023463 C19.7492492,171.226733 15.6419608,170.131307 9.73457352,172.396056 C-2.81844395,177.209553 -0.636943616,189.428764 2.14844224,191.651493 L236.08907,191.651493 C236.08907,191.651493 253.857463,97.230447 254.657828,1.71252654 C245.556204,0.16212265 231.980337,-1.19411851 220.918253,1.69079191" id="Fill-9" fill="#06253D" mask="url(#mask-2)"></path>
                </g>
                <path d="M889.779787,349.017325 C869.058197,337.181928 855.874224,349.017325 855.874224,349.017325 C855.874224,349.017325 863.40751,331.974643 844.572851,320.140697 C826.802207,308.975802 808.198542,318.873707 806.147028,320.031849 C808.588344,318.600861 833.758009,302.99352 824.792561,272.802009 C815.375232,241.085175 780.526925,248.184962 780.526925,248.184962 C780.526925,248.184962 793.243136,234.457062 780.526925,220.729162 C767.813603,207.001262 758.39483,220.729162 758.39483,220.729162 C758.39483,220.729162 763.674482,195.804438 746.622807,183.805043 C738.149664,177.84308 731.203969,177.557172 726.999881,178.284277 C732.76029,226.174461 738.371996,298.823919 732.965297,376 L906.731846,376 C906.731846,376 910.499933,360.851272 889.779787,349.017325" id="Fill-12" fill="#06253D"></path>
                <path d="M770.484058,376 C781.64106,217.321914 752.074208,43 752.074208,43 L211.851374,43 C215.36063,99.5643637 216.201057,125.546622 215.982633,151.462236 C215.033716,264.377994 193.999881,376 193.999881,376 L770.484058,376 Z" id="Fill-14" fill="#042033"></path>
                <g id="Group-18" transform="translate(176.065960, 0.000000)">
                    <mask id="mask-4" fill="white">
                        <use xlink:href="#path-3"></use>
                    </mask>
                    <g id="Clip-17"></g>
                    <path d="M598.694455,87.9805686 C598.694455,87.9805686 484.447265,72.4071784 299.421124,72.4071784 C114.396428,72.4071784 2.93536799,87.9805686 2.93536799,87.9805686 C-1.34064655,87.9762418 -4.32041742,55.0886685 19.2677493,18.8421003 C228.256335,-12.3061224 365.184176,0.655357336 574.730565,18.4541357 C574.730565,18.4541357 598.694455,43.4829016 598.694455,87.9805686" id="Fill-16" fill="#06253D" mask="url(#mask-4)"></path>
                </g>
                <g id="Group-21" transform="translate(351.233220, 297.202660)">
                    <mask id="mask-6" fill="white">
                        <use xlink:href="#path-5"></use>
                    </mask>
                    <g id="Clip-20"></g>
                    <path d="M79.0569643,39.5418182 C79.0569643,17.7032727 61.3593367,0 39.5277551,0 C17.6976276,0 0,17.7032727 0,39.5418182 C0,61.3803636 17.6976276,79.0836364 39.5277551,79.0836364 C61.3593367,79.0836364 79.0569643,61.3803636 79.0569643,39.5418182" id="Fill-19" fill="#0B304C" mask="url(#mask-6)"></path>
                </g>
                <g id="Group-24" transform="translate(731.572748, 297.202660)">
                    <mask id="mask-8" fill="white">
                        <use xlink:href="#path-7"></use>
                    </mask>
                    <g id="Clip-23"></g>
                    <path d="M79.0569643,39.5418182 C79.0569643,17.7032727 61.3593367,0 39.5277551,0 C17.6976276,0 0,17.7032727 0,39.5418182 C0,61.3803636 17.6976276,79.0836364 39.5277551,79.0836364 C61.3593367,79.0836364 79.0569643,61.3803636 79.0569643,39.5418182" id="Fill-22" fill="#0B304C" mask="url(#mask-8)"></path>
                </g>
                <path d="M825.528732,114 L336.47103,114 C313.566916,114 294.999881,132.551641 294.999881,155.436764 L294.999881,324.337153 C294.999881,330.778153 300.227507,336 306.673852,336 L331.146543,336 C336.739929,336 341.533847,332.031974 342.606552,326.547229 C347.015915,304.014562 366.881183,287.012864 390.722106,287.012864 C414.563029,287.012864 434.429742,304.014562 438.83766,326.547229 C439.913256,332.031974 444.704282,336 450.297669,336 L711.702094,336 C717.29548,336 722.086506,332.031974 723.160656,326.547229 C727.568574,304.014562 747.435287,287.012864 771.277656,287.012864 C795.11858,287.012864 814.983847,304.014562 819.393211,326.547229 C820.465915,332.031974 825.258387,336 830.853219,336 L855.32591,336 C861.772255,336 866.999881,330.778153 866.999881,324.337153 L866.999881,155.436764 C866.999881,132.551641 848.432846,114 825.528732,114" id="Fill-25" fill="#0B304C"></path>
                <polygon id="Fill-27" fill="#052535" points="583.999881 244 660.999881 244 660.999881 150 583.999881 150"></polygon>
                <polygon id="Fill-29" fill="#052535" points="411.999881 244 488.999881 244 488.999881 150 411.999881 150"></polygon>
                <polygon id="Fill-31" fill="#052535" points="498.999881 244 575.999881 244 575.999881 150 498.999881 150"></polygon>
                <polygon id="Fill-33" fill="#052535" points="670.999881 244 747.999881 244 747.999881 150 670.999881 150"></polygon>
                <path d="M816.372103,150 L756.999881,150 L756.999881,244 L833.999881,244 L833.999881,167.469166 C833.999881,157.821266 826.107602,150 816.372103,150" id="Fill-35" fill="#052535"></path>
                <path d="M403.999881,150 L344.627991,150 C334.892309,150 326.999881,157.821266 326.999881,167.469166 L326.999881,244 L403.999881,244 L403.999881,150 Z" id="Fill-37" fill="#052535"></path>
                <polygon id="Fill-39" fill="#042033" points="583.999881 244 660.999881 244 660.999881 150 583.999881 150"></polygon>
                <polygon id="Fill-41" fill="#042033" points="411.999881 244 488.999881 244 488.999881 150 411.999881 150"></polygon>
                <polygon id="Fill-43" fill="#042033" points="498.999881 244 575.999881 244 575.999881 150 498.999881 150"></polygon>
                <polygon id="Fill-45" fill="#042033" points="670.999881 244 747.999881 244 747.999881 150 670.999881 150"></polygon>
                <path d="M833.999881,167.47537 L833.999881,244 L756.999881,244 L756.999881,150 L816.364537,150 C819.213335,150 821.918897,150.673784 824.306157,151.863657 C827.518107,153.483605 830.151328,156.021046 831.858581,159.13192 C833.218596,161.612018 833.999881,164.450511 833.999881,167.47537" id="Fill-47" fill="#042033"></path>
                <path d="M403.999881,150 L403.999881,244 L326.999881,244 L326.999881,167.47537 C326.999881,157.82736 334.899543,150 344.636672,150 L403.999881,150 Z" id="Fill-49" fill="#042033"></path>
                <path d="M280.999881,173 L280.999881,173 C278.790646,173 276.999881,174.804541 276.999881,177.030773 L276.999881,376 L284.999881,376 L284.999881,177.030773 C284.999881,174.804541 283.209116,173 280.999881,173" id="Fill-51" fill="#06253D"></path>
                <path d="M302.828873,182 L259.169451,182 C256.314249,182 253.999881,184.33235 253.999881,187.211187 L253.999881,263.787364 C253.999881,266.6662 256.314249,269 259.169451,269 L302.828873,269 C305.684075,269 307.999881,266.6662 307.999881,263.787364 L307.999881,187.211187 C307.999881,184.33235 305.684075,182 302.828873,182" id="Fill-53" fill="#06253D"></path>
                <g id="Group-79" transform="translate(327.138648, 149.604402)" fill="#0B304C">
                    <polygon id="Fill-55" opacity="0.600000024" points="119.434815 0 85.9369642 33.3219697 85.9369642 0"></polygon>
                    <polygon id="Fill-57" points="70.3091676 94.3814924 77.0087378 87.7170985 77.0087378 94.3814924"></polygon>
                    <polygon id="Fill-59" opacity="0.600000024" points="85.9363854 78.8356061 162.945268 2.23106061 162.945268 94.3810606 85.9363854 94.3810606"></polygon>
                    <polygon id="Fill-61" opacity="0.600000024" points="171.888254 0 248.897136 0 248.897136 21.9939394 176.127938 94.3810606 171.888254 94.3810606"></polygon>
                    <polygon id="Fill-63" points="271.007165 0 257.825073 13.1128788 257.825073 0"></polygon>
                    <polygon id="Fill-65" opacity="0.600000024" points="270.645417 94.3814924 334.832509 30.5299773 334.832509 91.7905833 332.229371 94.3814924"></polygon>
                    <polygon id="Fill-67" opacity="0.600000024" points="420.770775 0 420.770775 6.30454545 343.761893 82.9090909 343.761893 21.6484848 365.523196 0"></polygon>
                    <polygon id="Fill-69" opacity="0.600000024" points="343.762182 93.2584773 420.771064 16.6539318 420.771064 31.4652955 357.52307 94.3812045 343.762182 94.3812045"></polygon>
                    <polygon id="Fill-71" opacity="0.600000024" points="452.401139 0 429.699291 22.5840909 429.699291 7.77272727 437.511597 0"></polygon>
                    <polygon id="Fill-73" points="404.01447 94.3814924 420.77063 77.7133106 420.77063 92.5246742 418.904011 94.3814924"></polygon>
                    <path d="M504.56489,9.16908333 L429.699001,83.6433258 L429.699001,68.8319621 L497.011595,1.87135606 C500.223915,3.49787121 502.85744,6.04559848 504.56489,9.16908333" id="Fill-75" opacity="0.600000024"></path>
                    <polygon id="Fill-77" opacity="0.600000024" points="0 94.3814924 24.5409742 94.3814924 77.0088825 42.2034621 77.0088825 7.22618939 0 83.8307348"></polygon>
                </g>
            </g>
        </g>
    </g>
</svg>